<?xml version="1.0" encoding="UTF-8" standalone="no"?>
<svg
   xmlns:dc="http://purl.org/dc/elements/1.1/"
   xmlns:cc="http://creativecommons.org/ns#"
   xmlns:rdf="http://www.w3.org/1999/02/22-rdf-syntax-ns#"
   xmlns:svg="http://www.w3.org/2000/svg"
   xmlns="http://www.w3.org/2000/svg"
   xmlns:sodipodi="http://sodipodi.sourceforge.net/DTD/sodipodi-0.dtd"
   xmlns:inkscape="http://www.inkscape.org/namespaces/inkscape"
   version="1.1"
   id="svg2"
   xml:space="preserve"
   width="766.1333"
   height="1066.6667"
   viewBox="0 0 766.1333 1066.6667"
   sodipodi:docname="PAC Protocol secondary logo black.eps"><metadata
     id="metadata8"><rdf:RDF><cc:Work
         rdf:about=""><dc:format>image/svg+xml</dc:format><dc:type
           rdf:resource="http://purl.org/dc/dcmitype/StillImage" /></cc:Work></rdf:RDF></metadata><defs
     id="defs6" /><sodipodi:namedview
     pagecolor="#ffffff"
     bordercolor="#666666"
     borderopacity="1"
     objecttolerance="10"
     gridtolerance="10"
     guidetolerance="10"
     inkscape:pageopacity="0"
     inkscape:pageshadow="2"
     inkscape:window-width="640"
     inkscape:window-height="480"
     id="namedview4" /><g
     id="g10"
     inkscape:groupmode="layer"
     inkscape:label="ink_ext_XXXXXX"
     transform="matrix(1.3333333,0,0,-1.3333333,0,1066.6667)"><g
       id="g12"
       transform="scale(0.1)"><path
         d="m 1814.28,1887.69 c 0,468.35 -479.94,489.22 -579.64,489.22 -99.7,0 -1234.64,0 -1234.64,0 v -479.95 h 389.52 v 187.81 c 0,0 740.78,0 856.71,0 115.93,0 201.71,-88.11 201.71,-187.81 0,-99.69 -48.68,-204.03 -197.07,-204.03 -148.39,0 -1250.87,0 -1250.87,0 V 862.879 h 379.086 v 526.311 c 0,0 716.444,2.32 876.424,2.32 159.98,0 558.77,27.83 558.77,496.18"
         style="fill:#252526;fill-opacity:1;fill-rule:nonzero;stroke:none"
         id="path14" /><path
         d="m 2444.93,2376.91 -370.04,-702.53 h 382.28 l 219.66,414.98 324.86,-605.1 h -853.53 v -0.05 H 1974.73 L 1647.39,862.922 h 380.2 l 170.76,322.598 h 963.7 v 0.05 l 173.21,-322.648 h 382.56 L 2904.98,2376.91 h -460.05"
         style="fill:#252526;fill-opacity:1;fill-rule:nonzero;stroke:none"
         id="path16" /><path
         d="m 4806.39,2129.42 c 145.8,0 280.45,-37.56 388.82,-101.14 h 543.8 c -181.4,241.09 -518.76,403.16 -904.79,403.16 -578.17,0 -1046.84,-363.37 -1046.84,-811.46 0,-448.22 468.67,-811.589 1046.84,-811.589 386.03,0 723.25,162.07 904.79,403.149 h -543.8 c -108.37,-63.57 -243.02,-101.13 -388.82,-101.13 -359.19,0 -650.36,228.15 -650.36,509.57 0,281.29 291.17,509.44 650.36,509.44"
         style="fill:#252526;fill-opacity:1;fill-rule:nonzero;stroke:none"
         id="path18" /><path
         d="M 182.004,242.672 H 59.125 v 177.359 h 120.57 c 13.356,0 81.145,-15.511 81.145,-89.269 0,-72.422 -63.199,-88.09 -78.836,-88.09 z M 179.695,475.68 H 3.48047 V 6.17188 H 59.125 V 187.012 h 122.879 c 54.23,0 134.484,45.699 134.484,143.75 0,102.418 -89.097,144.918 -136.793,144.918"
         style="fill:#252526;fill-opacity:1;fill-rule:nonzero;stroke:none"
         id="path20" /><path
         d="m 1024.72,330.809 c 0,102.39 -89.173,144.832 -136.888,144.832 H 711.707 V 6.12109 h 55.645 V 419.98 h 120.48 c 13.348,0 81.238,-15.441 81.238,-89.171 0,-72.477 -63.16,-88.188 -78.875,-88.188 H 794.48 L 954.188,6.12109 h 67.042 L 898.957,187.379 c 53.699,4.59 125.763,50.5 125.763,143.43"
         style="fill:#252526;fill-opacity:1;fill-rule:nonzero;stroke:none"
         id="path22" /><path
         d="m 1654.11,55.6719 c -102.1,0 -185.17,83.0471 -185.17,185.1601 0,102.109 83.07,185.168 185.17,185.168 102.11,0 185.19,-83.059 185.19,-185.168 0,-102.113 -83.08,-185.1601 -185.19,-185.1601 z m 0,425.9691 c -132.78,0 -240.81,-108.032 -240.81,-240.809 0,-132.781 108.03,-240.8202812 240.81,-240.8202812 132.8,0 240.83,108.0392812 240.83,240.8202812 0,132.777 -108.03,240.809 -240.83,240.809"
         style="fill:#252526;fill-opacity:1;fill-rule:nonzero;stroke:none"
         id="path24" /><path
         d="m 3127.43,55.6719 c -102.11,0 -185.17,83.0471 -185.17,185.1601 0,102.109 83.06,185.168 185.17,185.168 102.11,0 185.19,-83.059 185.19,-185.168 0,-102.113 -83.08,-185.1601 -185.19,-185.1601 z m 0,425.9691 c -132.78,0 -240.81,-108.032 -240.81,-240.809 0,-132.781 108.03,-240.8202812 240.81,-240.8202812 132.8,0 240.83,108.0392812 240.83,240.8202812 0,132.777 -108.03,240.809 -240.83,240.809"
         style="fill:#252526;fill-opacity:1;fill-rule:nonzero;stroke:none"
         id="path26" /><path
         d="m 4845.19,55.6719 c -102.11,0 -185.18,83.0471 -185.18,185.1601 0,102.109 83.07,185.168 185.18,185.168 102.11,0 185.17,-83.059 185.17,-185.168 0,-102.113 -83.06,-185.1601 -185.17,-185.1601 z m 0,425.9691 c -132.79,0 -240.83,-108.032 -240.83,-240.809 0,-132.781 108.04,-240.8202812 240.83,-240.8202812 132.79,0 240.81,108.0392812 240.81,240.8202812 0,132.777 -108.02,240.809 -240.81,240.809"
         style="fill:#252526;fill-opacity:1;fill-rule:nonzero;stroke:none"
         id="path28" /><path
         d="m 4000.37,425.969 c 60.64,0 114.63,-29.36 148.43,-74.567 h 65.38 c -40.06,77.348 -120.74,130.207 -213.81,130.207 -132.72,0 -240.81,-107.949 -240.81,-240.808 C 3759.56,108.09 3867.65,0 4000.37,0 c 92.93,0 173.75,52.8594 213.81,130.211 H 4148.8 C 4115,85 4061.01,55.6484 4000.37,55.6484 c -102.11,0 -185.17,83.0426 -185.17,185.1526 0,102.121 83.06,185.168 185.17,185.168"
         style="fill:#252526;fill-opacity:1;fill-rule:nonzero;stroke:none"
         id="path30" /><path
         d="m 2260.02,426 h 100.86 V 6.17188 h 55.64 V 426 h 100.86 v 55.641 H 2260.02 V 426"
         style="fill:#252526;fill-opacity:1;fill-rule:nonzero;stroke:none"
         id="path32" /><path
         d="M 5556.45,61.8203 V 471.039 h -55.64 V 6.16016 h 245.18 V 61.8203 h -189.54"
         style="fill:#252526;fill-opacity:1;fill-rule:nonzero;stroke:none"
         id="path34" /><path
         d="M 4577.17,5534.07 2876.03,8000 1174.85,5534.07 2611.11,3452.15 v 2093.12 l -233.44,-913.26 -622.31,902.06 1120.67,1624.44 1120.63,-1624.44 -622.3,-902.06 -498.34,1949.65 v -3513.5 l 0.01,-0.01 1701.14,2465.92"
         style="fill:#252526;fill-opacity:1;fill-rule:nonzero;stroke:none"
         id="path36" /></g></g></svg>
